<?xml version="1.0" encoding="UTF-8"?>
<svg id="Layer_2" xmlns="http://www.w3.org/2000/svg" viewBox="0 0 7179.98 2806.91">
  <defs>
    <style>
      .cls-1 {
        fill: #fff;
      }

      .cls-2 {
        fill: #ec1e24;
      }
    </style>
  </defs>
  <g id="Layer_1-2" data-name="Layer_1">
    <g>
      <path class="cls-1" d="M918.32,2729.52c59.92-30.1,119.75-60.4,179.78-90.28,345.67-172.06,691.66-343.45,1036.68-516.79,38.65-19.42,69.58-22.31,111.02-4.98,132.81,55.54,274.6,77.43,416.34,95.81,309.31,40.11,620.42,52.82,931.54,38.08,269.16-12.75,538.53-31.53,806.25-61.51,266.05-29.79,530.93-72.41,794.93-117.54,308.72-52.78,613.07-126.06,911.78-221.33,3.4-1.08,6.55-2.98,9.27-11.6-45.87,0-91.75,0-137.62,0-323.81,0-647.62.74-971.43-.28-228.36-.72-419.98-144.45-477.48-359.96-15.03-56.32-17.94-115.88-27.31-180.09-41.83,47.82-82.68,94.85-123.91,141.54-40.07,45.38-79.25,91.65-121.58,134.83-12.63,12.89-34.46,23.36-52.22,23.59-150.16,1.91-300.37.56-450.55,1.81-27.74.23-40.55-9.47-51.49-35-40.04-93.41-83.13-185.52-125.3-278.02-4.4-9.65-10.37-18.6-19.31-34.41-21.15,102.24-40.76,197.47-60.56,292.66-19.57,94.1-39.34,188.16-59.54,284.72h-803.76c14.28-69.71,27.76-137.65,42.13-205.39,85.5-402.98,171.44-805.86,256.72-1208.88,27.01-127.63,51.74-255.76,79.66-383.18,2.79-12.72,20.56-31.69,31.36-31.68,177.63.13,356.07-6.96,532.67,7.62,190.54,15.73,325.11,123.25,399.73,301.78,52.4,125.39,105.48,250.51,161.63,383.74,46.94-53.87,88.59-102.37,131-150.19,104.05-117.33,204.8-237.86,313.66-350.55C4707.64,64.37,4865.93.94,5045.97.76c446.41-.46,892.83,2.04,1339.24,3.18,130.78.33,261.56.05,400.53.05-119.95,578.21-238.76,1150.9-359.69,1733.79,188.17-86.96,371.44-161.35,497.67-322.46,80.18-102.34,74.92-193.62-15.5-287.91-38.52-40.17-85.39-72.33-133.31-112.16,84.82,11.54,162.24,32.58,233.83,72.08,153.09,84.48,203.61,212.31,151.26,379.17-43.6,138.93-133.45,245.21-241.04,338.24-207.66,179.56-449.32,301.27-700.87,404.38-446.86,183.16-911.79,304.36-1386.87,384.3-322.44,54.25-646.5,101.61-971.45,137.31-285.65,31.38-573.28,50.7-860.53,60.14-392.14,12.88-784.95,20.81-1177.11,12.88-295.26-5.97-589.94-40.19-884.88-61.95-5.16-.38-10.21-2.32-15.31-3.53-1.2-2.91-2.41-5.82-3.61-8.74ZM4719.06,850.83c2.47,1.23,4.95,2.46,7.42,3.69-8.69,42.34-18.47,84.49-25.86,127.05-21.12,121.52-53.28,242.65-59.07,364.97-9.45,199.65,152.93,361.86,353.28,362.97,424.35,2.36,848.73.58,1273.1,1.31,25.53.04,36.25-8.32,41.34-33.29,59.48-291.87,120.01-583.53,179.9-875.31,10.61-51.7,19.6-103.73,29.48-156.37h-965.56c-24.97,121.36-49.2,239.1-74.45,361.82h431.32c-24.72,110.42-47.9,216.16-73.03,321.43-1.71,7.17-18.08,15.38-27.68,15.44-147.42.9-294.92,3.33-442.25-.43-115.79-2.96-179.7-89.18-156.54-200.56,28.23-135.71,55.64-271.6,84.13-407.26,9.57-45.55,14.27-93.97,33.68-135.2,35.84-76.12,104.43-104.83,186.65-104.78,329.3.2,658.6-.47,987.9.87,36.07.15,54.08-6.75,60.94-46.09,16.5-94.65,37.6-188.53,58.12-282.45,6.25-28.63-4-36.52-31.25-36.38-72.99.38-146-1.8-219-1.87-435.39-.44-870.79.91-1306.16-1.51-175.94-.98-318.61,67.91-433.18,195.28-138.91,154.41-272.76,313.37-408.67,470.48-37.97,43.89-75.49,88.16-116.01,135.54-8.93-16.82-14.71-26.12-19.02-36.07-75.9-175.37-152.06-350.62-227.24-526.3-66.64-155.71-185.1-234.2-353.18-237.6-96.41-1.95-192.89-.56-289.33-.6-98.57-.04-97.08.3-117.31,96.66-95.03,452.77-191.01,905.34-286.46,1358.02-8.28,39.29-15.11,78.89-23.46,122.76,179.14,0,349.81.53,520.44-1.41,9.51-.11,24.65-19.44,27.3-31.92,43.27-204.18,84.77-408.73,127.07-613.11,14.57-70.41,30.25-140.58,47.81-221.9,11.5,22.86,17.98,34.62,23.46,46.81,82.87,184.29,166.12,368.42,247.73,553.27,10.52,23.84,22.98,32.63,48.69,32.3,99.19-1.26,198.44-2.03,297.58.37,36.56.88,61.09-11.33,84.33-38.59,115.1-135.02,231.7-268.75,347.81-402.9,51.71-59.75,103.49-119.42,155.25-179.13Z"/>
      <path class="cls-2" d="M2083.97,2036.15c-119.65,59.93-236.04,118.63-352.78,176.63-274.68,136.47-549.52,272.62-824.32,408.83-33.26,16.49-68.97,29.18-99.58,49.57-46.04,30.68-92.23,33.89-144.75,21.6-166.25-38.9-331.74-79.44-482.16-164.19-27.46-15.47-54.24-32.97-78.77-52.73-125.64-101.2-134.89-232.43-27.03-354.64,100.22-113.56,227.34-189.8,358.59-260.37,36.29-19.51,74.33-35.8,110.37-55.72,75.03-41.47,152.49-60.65,240.26-54.31,233.34,16.86,467.13,27.46,700.78,40,133.34,7.16,266.7,14.11,400.12,19.24,37.92,1.46,57.67,8.86,71.27,52.42,15.22,48.76,52.6,91.05,82.82,134.43,10.53,15.12,28.47,25.08,45.19,39.24Z"/>
      <path class="cls-2" d="M2076.38,1529.18c-38.91,61.57-73.68,118.53-111.09,173.71-5.62,8.29-23.72,12.06-35.73,11.47-199.14-9.77-398.24-20.39-597.33-31.22-138.71-7.55-277.39-15.71-418.01-30.3,80.66-27.63,160.38-58.53,242.18-82.24,211-61.16,422.88-119.29,634.6-177.96,12.51-3.46,29.37-5.95,39.64-.42,83.25,44.91,165.41,91.85,245.74,136.95Z"/>
      <path class="cls-2" d="M1980.79,1345.57c176.95-36.92,353.91-73.84,530.86-110.76,1.39,3.19,2.79,6.37,4.18,9.56-12.99,7.22-26.29,13.94-38.93,21.73-95.72,58.97-191.1,118.5-287.24,176.78-11.01,6.67-29.56,13.43-38.67,8.69-58.06-30.18-114.44-63.56-171.38-95.89.39-3.37.78-6.74,1.17-10.11Z"/>
      <path d="M4719.06,850.83c-51.75,59.71-103.54,119.39-155.25,179.13-116.11,134.16-232.71,267.89-347.81,402.9-23.24,27.26-47.77,39.47-84.33,38.59-99.15-2.4-198.4-1.62-297.58-.37-25.71.32-38.17-8.47-48.69-32.3-81.61-184.85-164.86-368.97-247.73-553.27-5.48-12.2-11.96-23.95-23.46-46.81-17.56,81.32-33.24,151.5-47.81,221.9-42.3,204.38-83.8,408.93-127.07,613.11-2.64,12.48-17.79,31.81-27.3,31.92-170.64,1.95-341.3,1.41-520.44,1.41,8.34-43.87,15.17-83.47,23.46-122.76,95.44-452.68,191.42-905.25,286.46-1358.02,20.22-96.36,18.74-96.71,117.31-96.66,96.45.04,192.93-1.35,289.33.6,168.08,3.39,286.54,81.88,353.18,237.6,75.18,175.67,151.34,350.93,227.24,526.3,4.31,9.95,10.09,19.25,19.02,36.07,40.53-47.37,78.04-91.65,116.01-135.54,135.91-157.1,269.77-316.06,408.67-470.48,114.57-127.36,257.25-196.26,433.18-195.28,435.38,2.42,870.77,1.08,1306.16,1.51,73,.07,146,2.25,219,1.87,27.25-.14,37.5,7.75,31.25,36.38-20.52,93.91-41.62,187.79-58.12,282.45-6.86,39.34-24.87,46.24-60.94,46.09-329.29-1.35-658.6-.67-987.9-.87-82.22-.05-150.81,28.66-186.65,104.78-19.41,41.23-24.12,89.65-33.68,135.2-28.49,135.66-55.91,271.54-84.13,407.26-23.16,111.37,40.75,197.6,156.54,200.56,147.33,3.76,294.83,1.34,442.25.43,9.6-.06,25.97-8.27,27.68-15.44,25.14-105.27,48.32-211.01,73.03-321.43h-431.32c25.25-122.72,49.47-240.46,74.45-361.82h965.56c-9.88,52.64-18.87,104.67-29.48,156.37-59.89,291.79-120.42,583.44-179.9,875.31-5.09,24.97-15.81,33.34-41.34,33.29-424.37-.72-848.74,1.05-1273.1-1.31-200.34-1.11-362.73-163.32-353.28-362.97,5.79-122.32,37.96-243.45,59.07-364.97,7.4-42.56,17.17-84.71,25.86-127.05-2.47-1.23-4.95-2.46-7.42-3.69Z"/>
    </g>
  </g>
</svg>